<?xml version="1.0" encoding="UTF-8"?><svg id="Layer_1" xmlns="http://www.w3.org/2000/svg" viewBox="0 0 375.97 430.85"><defs><style>.cls-1{fill:#b71f25;}.cls-2{fill:none;stroke:#bdd7e0;stroke-miterlimit:10;}.cls-3{fill:#193561;}</style></defs><path class="cls-2" d="M43.54,333.83l40.98,23.64c.91.42,1.24,1.46,1.33,2.39.31,3.53.31,10.58,0,14.1-.07.77-.32,1.53-.84,2.12l-6.02,4.17,6.02,4.72.79,1.62c-.34,6.25.59,13.26.05,19.42-.1,1.09-.42,1.79-1.43,2.27-11.49,6.44-22.78,13.23-34.24,19.72-1.39.79-2.87,1.79-4.39,2.19v-18.25c0-.48.86-1.1,1.24-1.35,6.33-4.25,14.01-7.64,20.52-11.75.44-.28.92-.55,1.23-1.01l-21.32-17.58,21.32-12.42-.67-.62c-8.75-4.61-16.99-10.27-25.72-14.89-.22-.12-1.98-1.15-1.98-.43v50.6c0,.07-.35.6-.49.63-.17.04-1.23-.55-1.5-.69-5.18-2.67-10.17-6.02-15.27-8.83-1.11-1.32-.77-6.63-.75-8.53.1-9.18.28-18.41.21-27.62-.02-3.33-.49-6.84-.2-10.19.07-.86.3-1.93,1.05-2.47l19.17-10.97h.93Z"/><path class="cls-2" d="M40.2,430.21L1.56,408.12c-.63-.4-1.05-1.14-1.06-1.9l.09-47.38c.2-.82.88-1.19,1.53-1.62,3.62-2.38,8.86-5.28,12.73-7.3.62-.32,1.25-.76,1.98-.71.26,10.38.26,20.83.2,31.24-.02,5.02-.63,10.36-.2,15.38.08.95.3,2,1.12,2.59l21.51,12.43c.2.12.75,1,.75,1.1v18.25h0Z"/><path class="cls-2" d="M137.65,333.83l40.98,23.64c.91.42,1.24,1.46,1.33,2.39.31,3.53.31,10.58,0,14.1-.07.77-.32,1.53-.84,2.12l-6.02,4.17,6.02,4.72.79,1.62c-.34,6.25.59,13.26.05,19.42-.1,1.09-.42,1.79-1.43,2.27-11.49,6.44-22.78,13.23-34.24,19.72-1.39.79-2.87,1.79-4.39,2.19v-18.25c0-.48.86-1.1,1.24-1.35,6.33-4.25,14.01-7.64,20.52-11.75.44-.28.92-.55,1.23-1.01l-21.32-17.58,21.32-12.42-.67-.62c-8.75-4.61-16.99-10.27-25.72-14.89-.22-.12-1.98-1.15-1.98-.43v50.6c0,.07-.35.6-.49.63-.17.04-1.23-.55-1.5-.69-5.18-2.67-10.17-6.02-15.27-8.83-1.11-1.32-.77-6.63-.75-8.53.1-9.18.28-18.41.21-27.62-.02-3.33-.49-6.84-.2-10.19.07-.86.3-1.93,1.05-2.47l19.17-10.97h.93Z"/><path class="cls-2" d="M134.31,430.21l-38.64-22.09c-.63-.4-1.05-1.14-1.06-1.9l.09-47.38c.2-.82.88-1.19,1.53-1.62,3.62-2.38,8.86-5.28,12.73-7.3.62-.32,1.25-.76,1.98-.71.26,10.38.26,20.83.2,31.24-.02,5.02-.63,10.36-.2,15.38.08.95.3,2,1.12,2.59l21.51,12.43c.2.12.75,1,.75,1.1v18.25h0Z"/><path class="cls-2" d="M325.87,333.83l40.98,23.64c.91.42,1.24,1.46,1.33,2.39.31,3.53.31,10.58,0,14.1-.07.77-.32,1.53-.84,2.12l-6.02,4.17,6.02,4.72.79,1.62c-.34,6.25.59,13.26.05,19.42-.1,1.09-.42,1.79-1.43,2.27-11.49,6.44-22.78,13.23-34.24,19.72-1.39.79-2.87,1.79-4.39,2.19v-18.25c0-.48.86-1.1,1.24-1.35,6.33-4.25,14.01-7.64,20.52-11.75.44-.28.92-.55,1.23-1.01l-21.32-17.58,21.32-12.42-.67-.62c-8.75-4.61-16.99-10.27-25.72-14.89-.22-.12-1.98-1.15-1.98-.43v50.6c0,.07-.35.6-.49.63-.17.04-1.23-.55-1.5-.69-5.18-2.67-10.17-6.02-15.27-8.83-1.11-1.32-.77-6.63-.75-8.53.1-9.18.28-18.41.21-27.62-.02-3.33-.49-6.84-.2-10.19.07-.86.3-1.93,1.05-2.47l19.17-10.97h.93Z"/><path class="cls-2" d="M322.53,430.21l-38.64-22.09c-.63-.4-1.05-1.14-1.06-1.9l.09-47.38c.2-.82.88-1.19,1.53-1.62,3.62-2.38,8.86-5.28,12.73-7.3.62-.32,1.25-.76,1.98-.71.26,10.38.26,20.83.2,31.24-.02,5.02-.63,10.36-.2,15.38.08.95.3,2,1.12,2.59l21.51,12.43c.2.12.75,1,.75,1.1v18.25h0Z"/><path class="cls-2" d="M231.76,333.83l40.98,23.64c.91.42,1.24,1.46,1.33,2.39.31,3.53.31,10.58,0,14.1-.07.77-.32,1.53-.84,2.12l-6.02,4.17,6.02,4.72.79,1.62c-.34,6.25.59,13.26.05,19.42-.1,1.09-.42,1.79-1.43,2.27-11.49,6.44-22.78,13.23-34.24,19.72-1.39.79-2.87,1.79-4.39,2.19v-18.25c0-.48.86-1.1,1.24-1.35,6.33-4.25,14.01-7.64,20.52-11.75.44-.28.92-.55,1.23-1.01l-21.32-17.58,21.32-12.42-.67-.62c-8.75-4.61-16.99-10.27-25.72-14.89-.22-.12-1.98-1.15-1.98-.43v50.6c0,.07-.35.6-.49.63-.17.04-1.23-.55-1.5-.69-5.18-2.67-10.17-6.02-15.27-8.83-1.11-1.32-.77-6.63-.75-8.53.1-9.18.28-18.41.21-27.62-.02-3.33-.49-6.84-.2-10.19.07-.86.3-1.93,1.05-2.47l19.17-10.97h.93Z"/><path class="cls-2" d="M228.42,430.21l-38.64-22.09c-.63-.4-1.05-1.14-1.06-1.9l.09-47.38c.2-.82.88-1.19,1.53-1.62,3.62-2.38,8.86-5.28,12.73-7.3.62-.32,1.25-.76,1.98-.71.26,10.38.26,20.83.2,31.24-.02,5.02-.63,10.36-.2,15.38.08.95.3,2,1.12,2.59l21.51,12.43c.2.12.75,1,.75,1.1v18.25h0Z"/><path class="cls-2" d="M94.68,249.83l40.98,23.64c.91.42,1.24,1.46,1.33,2.39.31,3.53.31,10.58,0,14.1-.07.77-.32,1.53-.84,2.12l-6.02,4.17,6.02,4.72.79,1.62c-.34,6.25.59,13.26.05,19.42-.1,1.09-.42,1.79-1.43,2.27-11.49,6.44-22.78,13.23-34.24,19.72-1.39.79-2.87,1.79-4.39,2.19v-18.25c0-.48.86-1.1,1.24-1.35,6.33-4.25,14.01-7.64,20.52-11.75.44-.28.92-.55,1.23-1.01l-21.32-17.58,21.32-12.42-.67-.62c-8.75-4.61-16.99-10.27-25.72-14.89-.22-.12-1.98-1.15-1.98-.43v50.6c0,.07-.35.6-.49.63-.17.04-1.23-.55-1.5-.69-5.18-2.67-10.17-6.02-15.27-8.83-1.11-1.32-.77-6.63-.75-8.53.1-9.18.28-18.41.21-27.62-.02-3.33-.49-6.84-.2-10.19.07-.86.3-1.93,1.05-2.47l19.17-10.97h.93Z"/><path class="cls-2" d="M91.34,346.21l-38.64-22.09c-.63-.4-1.05-1.14-1.06-1.9l.09-47.38c.2-.82.88-1.19,1.53-1.62,3.62-2.38,8.86-5.28,12.73-7.3.62-.32,1.25-.76,1.98-.71.26,10.38.26,20.83.2,31.24-.02,5.02-.63,10.36-.2,15.38.08.95.3,2,1.12,2.59l21.51,12.43c.2.12.75,1,.75,1.1v18.25h0Z"/><path class="cls-2" d="M188.79,249.83l40.98,23.64c.91.42,1.24,1.46,1.33,2.39.31,3.53.31,10.58,0,14.1-.07.77-.32,1.53-.84,2.12l-6.02,4.17,6.02,4.72.79,1.62c-.34,6.25.59,13.26.05,19.42-.1,1.09-.42,1.79-1.43,2.27-11.49,6.44-22.78,13.23-34.24,19.72-1.39.79-2.87,1.79-4.39,2.19v-18.25c0-.48.86-1.1,1.24-1.35,6.33-4.25,14.01-7.64,20.52-11.75.44-.28.92-.55,1.23-1.01l-21.32-17.58,21.32-12.42-.67-.62c-8.75-4.61-16.99-10.27-25.72-14.89-.22-.12-1.98-1.15-1.98-.43v50.6c0,.07-.35.6-.49.63-.17.04-1.23-.55-1.5-.69-5.18-2.67-10.17-6.02-15.27-8.83-1.11-1.32-.77-6.63-.75-8.53.1-9.18.28-18.41.21-27.62-.02-3.33-.49-6.84-.2-10.19.07-.86.3-1.93,1.05-2.47l19.17-10.97h.93Z"/><path class="cls-2" d="M185.45,346.21l-38.64-22.09c-.63-.4-1.05-1.14-1.06-1.9l.09-47.38c.2-.82.88-1.19,1.53-1.62,3.62-2.38,8.86-5.28,12.73-7.3.62-.32,1.25-.76,1.98-.71.26,10.38.26,20.83.2,31.24-.02,5.02-.63,10.36-.2,15.38.08.95.3,2,1.12,2.59l21.51,12.43c.2.12.75,1,.75,1.1v18.25h0Z"/><path class="cls-2" d="M282.9,249.83l40.98,23.64c.91.42,1.24,1.46,1.33,2.39.31,3.53.31,10.58,0,14.1-.07.77-.32,1.53-.84,2.12l-6.02,4.17,6.02,4.72.79,1.62c-.34,6.25.59,13.26.05,19.42-.1,1.09-.42,1.79-1.43,2.27-11.49,6.44-22.78,13.23-34.24,19.72-1.39.79-2.87,1.79-4.39,2.19v-18.25c0-.48.86-1.1,1.24-1.35,6.33-4.25,14.01-7.64,20.52-11.75.44-.28.92-.55,1.23-1.01l-21.32-17.58,21.32-12.42-.67-.62c-8.75-4.61-16.99-10.27-25.72-14.89-.22-.12-1.98-1.15-1.98-.43v50.6c0,.07-.35.6-.49.63-.17.04-1.23-.55-1.5-.69-5.18-2.67-10.17-6.02-15.27-8.83-1.11-1.32-.77-6.63-.75-8.53.1-9.18.28-18.41.21-27.62-.02-3.33-.49-6.84-.2-10.19.07-.86.3-1.93,1.05-2.47l19.17-10.97h.93Z"/><path class="cls-2" d="M279.56,346.21l-38.64-22.09c-.63-.4-1.05-1.14-1.06-1.9l.09-47.38c.2-.82.88-1.19,1.53-1.62,3.62-2.38,8.86-5.28,12.73-7.3.62-.32,1.25-.76,1.98-.71.26,10.38.26,20.83.2,31.24-.02,5.02-.63,10.36-.2,15.38.08.95.3,2,1.12,2.59l21.51,12.43c.2.12.75,1,.75,1.1v18.25h0Z"/><path class="cls-2" d="M144.71,165.65l40.98,23.64c.91.42,1.24,1.46,1.33,2.39.31,3.53.31,10.58,0,14.1-.07.77-.32,1.53-.84,2.12l-6.02,4.17,6.02,4.72.79,1.62c-.34,6.25.59,13.26.05,19.42-.1,1.09-.42,1.79-1.43,2.27-11.49,6.44-22.78,13.23-34.24,19.72-1.39.79-2.87,1.79-4.39,2.19v-18.25c0-.48.86-1.1,1.24-1.35,6.33-4.25,14.01-7.64,20.52-11.75.44-.28.92-.55,1.23-1.01l-21.32-17.58,21.32-12.42-.67-.62c-8.75-4.61-16.99-10.27-25.72-14.89-.22-.12-1.98-1.15-1.98-.43v50.6c0,.07-.35.6-.49.63-.17.04-1.23-.55-1.5-.69-5.18-2.67-10.17-6.02-15.27-8.83-1.11-1.32-.77-6.63-.75-8.53.1-9.18.28-18.41.21-27.62-.02-3.33-.49-6.84-.2-10.19.07-.86.3-1.93,1.05-2.47l19.17-10.97h.93Z"/><path class="cls-2" d="M141.37,262.03l-38.64-22.09c-.63-.4-1.05-1.14-1.06-1.9l.09-47.38c.2-.82.88-1.19,1.53-1.62,3.62-2.38,8.86-5.28,12.73-7.3.62-.32,1.25-.76,1.98-.71.26,10.38.26,20.83.2,31.24-.02,5.02-.63,10.36-.2,15.38.08.95.3,2,1.12,2.59l21.51,12.43c.2.12.75,1,.75,1.1v18.25h0Z"/><path class="cls-2" d="M332.94,165.65l40.98,23.64c.91.42,1.24,1.46,1.33,2.39.31,3.53.31,10.58,0,14.1-.07.77-.32,1.53-.84,2.12l-6.02,4.17,6.02,4.72.79,1.62c-.34,6.25.59,13.26.05,19.42-.1,1.09-.42,1.79-1.43,2.27-11.49,6.44-22.78,13.23-34.24,19.72-1.39.79-2.87,1.79-4.39,2.19v-18.25c0-.48.86-1.1,1.24-1.35,6.33-4.25,14.01-7.64,20.52-11.75.44-.28.92-.55,1.23-1.01l-21.32-17.58,21.32-12.42-.67-.62c-8.75-4.61-16.99-10.27-25.72-14.89-.22-.12-1.98-1.15-1.98-.43v50.6c0,.07-.35.6-.49.63-.17.04-1.23-.55-1.5-.69-5.18-2.67-10.17-6.02-15.27-8.83-1.11-1.32-.77-6.63-.75-8.53.1-9.18.28-18.41.21-27.62-.02-3.33-.49-6.84-.2-10.19.07-.86.3-1.93,1.05-2.47l19.17-10.97h.93Z"/><path class="cls-2" d="M329.59,262.03l-38.64-22.09c-.63-.4-1.05-1.14-1.06-1.9l.09-47.38c.2-.82.88-1.19,1.53-1.62,3.62-2.38,8.86-5.28,12.73-7.3.62-.32,1.25-.76,1.98-.71.26,10.38.26,20.83.2,31.24-.02,5.02-.63,10.36-.2,15.38.08.95.3,2,1.12,2.59l21.51,12.43c.2.12.75,1,.75,1.1v18.25h0Z"/><path class="cls-2" d="M238.83,165.65l40.98,23.64c.91.42,1.24,1.46,1.33,2.39.31,3.53.31,10.58,0,14.1-.07.77-.32,1.53-.84,2.12l-6.02,4.17,6.02,4.72.79,1.62c-.34,6.25.59,13.26.05,19.42-.1,1.09-.42,1.79-1.43,2.27-11.49,6.44-22.78,13.23-34.24,19.72-1.39.79-2.87,1.79-4.39,2.19v-18.25c0-.48.86-1.1,1.24-1.35,6.33-4.25,14.01-7.64,20.52-11.75.44-.28.92-.55,1.23-1.01l-21.32-17.58,21.32-12.42-.67-.62c-8.75-4.61-16.99-10.27-25.72-14.89-.22-.12-1.98-1.15-1.98-.43v50.6c0,.07-.35.6-.49.63-.17.04-1.23-.55-1.5-.69-5.18-2.67-10.17-6.02-15.27-8.83-1.11-1.32-.77-6.63-.75-8.53.1-9.18.28-18.41.21-27.62-.02-3.33-.49-6.84-.2-10.19.07-.86.3-1.93,1.05-2.47l19.17-10.97h.93Z"/><path class="cls-2" d="M235.48,262.03l-38.64-22.09c-.63-.4-1.05-1.14-1.06-1.9l.09-47.38c.2-.82.88-1.19,1.53-1.62,3.62-2.38,8.86-5.28,12.73-7.3.62-.32,1.25-.76,1.98-.71.26,10.38.26,20.83.2,31.24-.02,5.02-.63,10.36-.2,15.38.08.95.3,2,1.12,2.59l21.51,12.43c.2.12.75,1,.75,1.1v18.25h0Z"/><path class="cls-2" d="M195.86,81.64l40.98,23.64c.91.42,1.24,1.46,1.33,2.39.31,3.53.31,10.58,0,14.1-.07.77-.32,1.53-.84,2.12l-6.02,4.17,6.02,4.72.79,1.62c-.34,6.25.59,13.26.05,19.42-.1,1.09-.42,1.79-1.43,2.27-11.49,6.44-22.78,13.23-34.24,19.72-1.39.79-2.87,1.79-4.39,2.19v-18.25c0-.48.86-1.1,1.24-1.35,6.33-4.25,14.01-7.64,20.52-11.75.44-.28.92-.55,1.23-1.01l-21.32-17.58,21.32-12.42-.67-.62c-8.75-4.61-16.99-10.27-25.72-14.89-.22-.12-1.98-1.15-1.98-.43v50.6c0,.07-.35.6-.49.63-.17.04-1.23-.55-1.5-.69-5.18-2.67-10.17-6.02-15.27-8.83-1.11-1.32-.77-6.63-.75-8.53.1-9.18.28-18.41.21-27.62-.02-3.33-.49-6.84-.2-10.19.07-.86.3-1.93,1.05-2.47l19.17-10.97h.93Z"/><path class="cls-2" d="M192.51,178.02l-38.64-22.09c-.63-.4-1.05-1.14-1.06-1.9l.09-47.38c.2-.82.88-1.19,1.53-1.62,3.62-2.38,8.86-5.28,12.73-7.3.62-.32,1.25-.76,1.98-.71.26,10.38.26,20.83.2,31.24-.02,5.02-.63,10.36-.2,15.38.08.95.3,2,1.12,2.59l21.51,12.43c.2.12.75,1,.75,1.1v18.25h0Z"/><path class="cls-2" d="M289.97,81.64l40.98,23.64c.91.42,1.24,1.46,1.33,2.39.31,3.53.31,10.58,0,14.1-.07.77-.32,1.53-.84,2.12l-6.02,4.17,6.02,4.72.79,1.62c-.34,6.25.59,13.26.05,19.42-.1,1.09-.42,1.79-1.43,2.27-11.49,6.44-22.78,13.23-34.24,19.72-1.39.79-2.87,1.79-4.39,2.19v-18.25c0-.48.86-1.1,1.24-1.35,6.33-4.25,14.01-7.64,20.52-11.75.44-.28.92-.55,1.23-1.01l-21.32-17.58,21.32-12.42-.67-.62c-8.75-4.61-16.99-10.27-25.72-14.89-.22-.12-1.98-1.15-1.98-.43v50.6c0,.07-.35.6-.49.63-.17.04-1.23-.55-1.5-.69-5.18-2.67-10.17-6.02-15.27-8.83-1.11-1.32-.77-6.63-.75-8.53.1-9.18.28-18.41.21-27.62-.02-3.33-.49-6.84-.2-10.19.07-.86.3-1.93,1.05-2.47l19.17-10.97h.93Z"/><path class="cls-2" d="M286.63,178.02l-38.64-22.09c-.63-.4-1.05-1.14-1.06-1.9l.09-47.38c.2-.82.88-1.19,1.53-1.62,3.62-2.38,8.86-5.28,12.73-7.3.62-.32,1.25-.76,1.98-.71.26,10.38.26,20.83.2,31.24-.02,5.02-.63,10.36-.2,15.38.08.95.3,2,1.12,2.59l21.51,12.43c.2.12.75,1,.75,1.1v18.25h0Z"/><path class="cls-1" d="M243.5,0l40.98,23.64c.91.42,1.24,1.46,1.33,2.39.31,3.53.31,10.58,0,14.1-.07.77-.32,1.53-.84,2.12l-6.02,4.17,6.02,4.72.79,1.62c-.34,6.25.59,13.26.05,19.42-.1,1.09-.42,1.79-1.43,2.27-11.49,6.44-22.78,13.23-34.24,19.72-1.39.79-2.87,1.79-4.39,2.19v-18.25c0-.48.86-1.1,1.24-1.35,6.33-4.25,14.01-7.64,20.52-11.75.44-.28.92-.55,1.23-1.01l-21.32-17.58,21.32-12.42-.67-.62c-8.75-4.61-16.99-10.27-25.72-14.89-.22-.12-1.98-1.15-1.98-.43v50.6c0,.07-.35.6-.49.63-.17.04-1.23-.55-1.5-.69-5.18-2.67-10.17-6.02-15.27-8.83-1.11-1.32-.77-6.63-.75-8.53.1-9.18.28-18.41.21-27.62-.02-3.33-.49-6.84-.2-10.19.07-.86.3-1.93,1.05-2.47L242.57,0h.93Z"/><path class="cls-3" d="M240.16,96.38l-38.64-22.09c-.63-.4-1.05-1.14-1.06-1.9l.09-47.38c.2-.82.88-1.19,1.53-1.62,3.62-2.38,8.86-5.28,12.73-7.3.62-.32,1.25-.76,1.98-.71.26,10.38.26,20.83.2,31.24-.02,5.02-.63,10.36-.2,15.38.08.95.3,2,1.12,2.59l21.51,12.43c.2.12.75,1,.75,1.1v18.25h0Z"/></svg>