<?xml version="1.0" encoding="UTF-8"?>
<svg id="Layer_1" xmlns="http://www.w3.org/2000/svg" viewBox="0 0 554.22 117.11">
<defs><style>.cls-1{fill:#848484;}</style></defs><path class="cls-1" d="M52.3,0l49.79,28.73c1.1.51,1.51,1.77,1.61,2.9.38,4.29.38,12.85,0,17.13-.08.93-.39,1.86-1.02,2.58l-7.32,5.07,7.32,5.74.96,1.97c-.41,7.6.72,16.11.06,23.6-.12,1.33-.51,2.17-1.74,2.76-13.96,7.82-27.68,16.08-41.61,23.96-1.69.96-3.49,2.18-5.34,2.66v-22.18c0-.58,1.05-1.34,1.51-1.64,7.69-5.17,17.02-9.28,24.93-14.28.54-.34,1.12-.67,1.49-1.23l-25.9-21.36,25.91-15.09-.82-.75c-10.63-5.6-20.65-12.48-31.25-18.09-.27-.14-2.41-1.4-2.41-.52v61.48c0,.09-.43.73-.59.77-.21.05-1.49-.67-1.82-.84-6.3-3.24-12.36-7.32-18.56-10.73-1.35-1.6-.93-8.05-.91-10.37.12-11.16.34-22.37.25-33.56-.03-4.05-.59-8.31-.24-12.38.09-1.05.37-2.35,1.28-3L51.17,0h1.13Z"/><path d="M554.22,81.3v.68c-10.98,14.91-34.07,15.26-45.17.21-13.65-18.5-6.06-52,19.37-54.7,8.51-.91,19.34,1.76,24.54,9.02.91,1.27.89,1.53.25,2.92-.42.9-3.99,6.56-4.57,6.72-1.11.3-3.26-2.5-4.12-3.24-5.37-4.62-11.2-6.33-18.2-4.22-18.67,5.62-16.86,45.24,6.6,43.98,6.5-.35,11.1-4.32,15.57-8.55,2.27,1.97,3.85,4.81,5.72,7.19Z"/><path d="M48.24,117.11L1.29,90.27c-.77-.49-1.28-1.39-1.29-2.31L.11,30.39c.24-1,1.07-1.45,1.86-1.97,4.4-2.89,10.76-6.41,15.47-8.87.75-.39,1.52-.92,2.4-.86.31,12.61.31,25.31.24,37.96-.03,6.1-.77,12.59-.24,18.69.1,1.16.37,2.43,1.36,3.15l26.14,15.1c.24.15.91,1.22.91,1.34v22.18Z"/><path d="M125.94,28.65l27.46.17c7.66.63,15.75,3.29,18.14,11.38,2.18,7.38-.61,13.77-6.76,18.02,1.31,1.28,3.08,1.98,4.39,3.27,8,7.91,4.72,22.89-4.64,28.24-4.61,2.64-8,1.96-12.93,1.92-8.54-.07-16.95-.09-25.49.24-.35,0-.73-.13-.89-.46-.28-.58-.15-6.41-.12-7.55.23-9.23,1.11-18.41.92-27.7-.13-6.36-.76-12.78-.92-19.12-.03-1.09-.12-7.59.12-8.01.12-.2.5-.35.73-.4ZM136.62,37.42c.11,1.02-.21,2.02-.27,3-.15,2.78-.03,5.59.02,8.33.02.88-.21,4.62.21,4.97.47.39,3.6.75,4.39.79,7.36.45,22.58.83,19.85-10.6-1.94-8.14-14.37-7.7-20.98-7.2-.5.04-3.06.46-3.23.72ZM142.4,63.35c-1.07.06-5.89.23-6.23,1.21l.41,17.54c.27.27,1.71.48,2.18.53,9.52.95,24.72,2.08,23.53-11.58-.77-8.84-13.42-8.04-19.89-7.7Z"/><path d="M379.5,27.32c29.16-2.28,43.29,33.3,25.96,54.76-14.19,17.58-40.52,13.82-50.45-6.1-9.71-19.48,1.58-46.87,24.49-48.66ZM380.41,37.9c-15.29,1.33-21.86,20.4-15.7,33.12,7.74,15.96,27.97,15.52,35.32-.45,6.57-14.28-2.44-34.16-19.62-32.67Z"/><path d="M230.12,91.88l-12.3-.21-.82-.98-8.25-19.23c-.61-1.07-1.9-1.55-3.08-1.65-2.48-.22-8.93-.32-11.29,0-.56.08-.8.21-1.06.75l-.04,21.36-11.52-.24c-.8-.79-.13-4.77-.1-5.96.33-12.32.97-24.61.68-36.95-.13-5.53-.73-11.11-.92-16.65-.05-1.49-.5-3.08,1.24-3.28,5.05-.58,11.3.14,16.47-.21,18.08-2.07,32.77,4.75,29.56,25.26-.66,4.25-2.62,7.58-5.79,10.43-.94.84-3.46,2.12-3.4,3.37.04.94,2.14,5.16,2.68,6.35,2.2,4.87,4.78,9.62,6.84,14.56.21.5,1.38,3.01,1.09,3.3ZM197.4,37.68c-.91.07-3.52.22-4.03.93-.21.3-.41,2.56-.44,3.16-.34,6.14.19,12.66.11,18.83.35.5,4.81.39,5.66.43,6.21.3,15.74,1.44,18.47-5.85,1.83-4.88.67-13.27-4.47-15.8-3.65-1.8-11.22-1.99-15.3-1.7Z"/><path d="M445.32,27.54c8.13-.64,16.55,1.95,22.59,7.47.98.89,4.65,4.86,4.47,6.03-.17,1.05-5.5,6.7-6.84,7.36-.83.03-3.01-2.99-3.71-3.71-3.04-3.1-6.87-6.23-11.39-6.63-21.15-1.88-27.37,28.64-12.61,40.98,7.33,6.13,18.53,4.44,25.99-.59,0-5.89-1.47-11.75-.99-17.66l11.47-.17c1.2.4.39,5.25.37,6.37-.14,7.75.36,15.46.86,23.16-.37,1.25-2.24.29-3.04-.03-1.62-.66-3.13-1.65-4.65-2.48-9.58,6.42-23.69,7.77-33.89,2.03-25.12-14.15-19.14-59.74,11.37-62.13Z"/><path d="M299.71,28.66c.54.53.05,1.44.04,2.08-.01.97-.02,1.96.01,2.93.03.9.77,4.12.08,4.64l-16.53-.47-.46,25.12.86,28.1c-.29,1.54-3.43.61-4.56.6s-2.27-.02-3.4,0c-1.21.03-4.16,1.05-4.4-.77-.31-2.4.18-5.05.25-7.43.29-10.4.6-20.46.43-30.85-.08-4.82-.07-9.58-.25-14.39-.26-.79-1.74-.17-2.34-.15-5.08.17-10.13.49-15.21.45l1.52-9.41c.47-1.05,3.27-.32,4.23-.28,11.81.5,22.41.65,34.25,0,1.01-.06,4.9-.73,5.47-.17Z"/><path d="M347.94,81.58c.25.26.26.82.29,1.17.1,1.35-.12,4.2-.26,5.61-.08.76-.44,3.22-.93,3.69s-5.34.33-6.38.29c-3.43-.11-6.92-.59-10.35-.69-7.51-.22-15.41.67-22.78.24-.48-.03-.98,0-1.4-.29-.65-1.3-.07-2.64-.05-3.88.3-17.82.21-34.93-.23-52.72-.03-1.1-.71-5.36.08-5.98,2.41-.39,4.95.08,7.47.03,1.33-.02,2.8-.53,4.17-.14l.18.27c0,3.07.11,6.15.04,9.21-.3,13.07-1.37,26.78-.69,39.86.03.67.32,3.84.57,4.16.19.25.4.2.67.23,4.19.52,9.46-.42,13.77,0,2.96-.41,6.02-.22,9-.46,1.86-.15,4.4-.87,6.1-.86.23,0,.56.08.72.24Z"/><path d="M248.57,91.63c-.31.49-6.62,0-7.75.02-.99.02-3.32.63-4.07.03-.19-.15-.27-.36-.31-.59-.3-1.58-.06-5.6-.02-7.43.34-13.69.94-26.25.46-40.08-.15-4.24-.96-9.84-.46-13.98.07-.62.23-.79.86-.96l5.35.43c1.01-.03,5.59-.9,5.94.12,0,2.92.1,5.85.04,8.76-.26,12.46-.55,23.99-.24,36.48.14,5.73.31,11.45.2,17.19Z"/><path d="M494.91,91.63c-.31.49-6.62,0-7.75.02-.99.02-3.32.63-4.07.03-.19-.15-.27-.36-.31-.59-.3-1.58-.06-5.6-.02-7.43.34-13.69.94-26.25.46-40.08-.15-4.24-.96-9.84-.46-13.98.07-.62.23-.79.86-.96l5.35.43c1.01-.03,5.59-.9,5.94.12,0,2.92.1,5.85.04,8.76-.26,12.46-.55,23.99-.24,36.48.14,5.73.31,11.45.2,17.19Z"/></svg>