<?xml version="1.0" encoding="UTF-8"?>
<svg xmlns="http://www.w3.org/2000/svg" viewBox="-13 -5 130 130" width="120" height="120" preserveAspectRatio="xMidYMid meet">
<path
  fill="#c1121f"
  d="M52.3,0l49.79,28.73c1.1.51,1.51,1.77,1.61,2.9.38,4.29.38,12.85,0,17.13-.08.93-.39,1.86-1.02,2.58l-7.32,5.07,7.32,5.74.96,1.97c-.41,7.6.72,16.11.06,23.6-.12,1.33-.51,2.17-1.74,2.76-13.96,7.82-27.68,16.08-41.61,23.96-1.69.96-3.49,2.18-5.34,2.66v-22.18c0-.58,1.05-1.34,1.51-1.64,7.69-5.17,17.02-9.28,24.93-14.28.54-.34,1.12-.67,1.49-1.23l-25.9-21.36,25.91-15.09-.82-.75c-10.63-5.6-20.65-12.48-31.25-18.09-.27-.14-2.41-1.4-2.41-.52v61.48c0,.09-.43.73-.59.77-.21.05-1.49-.67-1.82-.84-6.3-3.24-12.36-7.32-18.56-10.73-1.35-1.6-.93-8.05-.91-10.37.12-11.16.34-22.37.25-33.56-.03-4.05-.59-8.31-.24-12.38.09-1.05.37-2.35,1.28-3L51.17,0h1.13Z"
/>
<path
  fill="#003566"
  d="M48.24,117.11L1.29,90.27c-.77-.49-1.28-1.39-1.29-2.31L.11,30.39c.24-1,1.07-1.45,1.86-1.97,4.4-2.89,10.76-6.41,15.47-8.87.75-.39,1.52-.92,2.4-.86.31,12.61.31,25.31.24,37.96-.03,6.1-.77,12.59-.24,18.69.1,1.16.37,2.43,1.36,3.15l26.14,15.1c.24.15.91,1.22.91,1.34v22.18Z"
/>
</svg>